<?xml version="1.0" standalone="no"?><!DOCTYPE svg PUBLIC "-//W3C//DTD SVG 1.1//EN" "http://www.w3.org/Graphics/SVG/1.1/DTD/svg11.dtd"><svg t="1513756042981" class="icon" style="" viewBox="0 0 1024 1024" version="1.1" xmlns="http://www.w3.org/2000/svg" p-id="1393" xmlns:xlink="http://www.w3.org/1999/xlink" width="48" height="48"><defs><style type="text/css"></style></defs><path d="M319.488 407.552h61.44v61.44h-61.44z" fill="#FFB600" p-id="1394"></path><path d="M442.368 284.672h61.44v61.44h-61.44z" fill="#009944" p-id="1395"></path><path d="M380.928 407.552h61.44v61.44h-61.44z" fill="#FFC933" p-id="1396"></path><path d="M442.368 407.552h61.44v61.44h-61.44z" fill="#FFB600" p-id="1397"></path><path d="M563.2 407.552h61.44v61.44h-61.44z" fill="#FFC933" p-id="1398"></path><path d="M624.64 407.552h61.44v61.44h-61.44zM260.096 466.944h61.44v61.44h-61.44z" fill="#FFB600" p-id="1399"></path><path d="M319.488 466.944h61.44v61.44h-61.44zM260.096 528.384h61.44v61.44h-61.44z" fill="#FFC933" p-id="1400"></path><path d="M319.488 528.384h61.44v61.44h-61.44zM380.928 466.944h61.44v61.44h-61.44z" fill="#FFB600" p-id="1401"></path><path d="M442.368 466.944h61.44v61.44h-61.44zM380.928 528.384h61.44v61.44h-61.44z" fill="#FFC933" p-id="1402"></path><path d="M442.368 528.384h61.44v61.44h-61.44zM563.2 466.944h61.44v61.44h-61.44z" fill="#FFB600" p-id="1403"></path><path d="M624.64 466.944h61.44v61.44h-61.44zM563.2 528.384h61.44v61.44h-61.44z" fill="#FFC933" p-id="1404"></path><path d="M624.64 528.384h61.44v61.44h-61.44zM260.096 589.824h61.44v61.44h-61.44z" fill="#FFB600" p-id="1405"></path><path d="M319.488 589.824h61.44v61.44h-61.44z" fill="#FFC933" p-id="1406"></path><path d="M260.096 649.216h61.44v61.44h-61.44z" fill="#FFC933" p-id="1407"></path><path d="M319.488 649.216h61.44v61.44h-61.44zM380.928 589.824h61.44v61.44h-61.44z" fill="#FFB600" p-id="1408"></path><path d="M442.368 589.824h61.44v61.44h-61.44zM380.928 649.216h61.44v61.44h-61.44z" fill="#FFC933" p-id="1409"></path><path d="M442.368 649.216h61.44v61.44h-61.44zM563.2 589.824h61.44v61.44h-61.44z" fill="#FFB600" p-id="1410"></path><path d="M624.64 589.824h61.44v61.44h-61.44zM563.2 649.216h61.44v61.44h-61.44z" fill="#FFC933" p-id="1411"></path><path d="M624.64 649.216h61.44v61.44h-61.44zM684.032 466.944h61.44v61.44h-61.44z" fill="#FFB600" p-id="1412"></path><path d="M684.032 528.384h61.44v61.44h-61.44z" fill="#FFC933" p-id="1413"></path><path d="M684.032 589.824h61.44v61.44h-61.44z" fill="#FFB600" p-id="1414"></path><path d="M684.032 649.216h61.44v61.44h-61.44z" fill="#FFC933" p-id="1415"></path><path d="M260.096 710.656h61.44v61.44h-61.44z" fill="#FFB600" p-id="1416"></path><path d="M319.488 710.656h61.44v61.44h-61.44z" fill="#FFC933" p-id="1417"></path><path d="M319.488 772.096h61.44v61.44h-61.44zM380.928 710.656h61.44v61.44h-61.44z" fill="#FFB600" p-id="1418"></path><path d="M442.368 710.656h61.44v61.44h-61.44zM380.928 772.096h61.44v61.44h-61.44z" fill="#FFC933" p-id="1419"></path><path d="M442.368 772.096h61.44v61.44h-61.44zM563.2 710.656h61.44v61.44h-61.44z" fill="#FFB600" p-id="1420"></path><path d="M624.64 710.656h61.44v61.44h-61.44zM563.2 772.096h61.44v61.44h-61.44z" fill="#FFC933" p-id="1421"></path><path d="M624.64 772.096h61.44v61.44h-61.44zM684.032 710.656h61.44v61.44h-61.44zM380.928 831.488h61.44v61.44h-61.44z" fill="#FFB600" p-id="1422"></path><path d="M442.368 831.488h61.44v61.44h-61.44z" fill="#FFC933" p-id="1423"></path><path d="M563.2 831.488h61.44v61.44h-61.44z" fill="#FFB600" p-id="1424"></path><path d="M319.488 165.888h61.44v61.44h-61.44zM380.928 227.328h61.44v61.44h-61.44zM442.368 165.888h61.44v61.44h-61.44zM501.76 284.672h61.44v61.44h-61.44z" fill="#009944" p-id="1425"></path><path d="M501.76 407.552h61.44v61.44h-61.44z" fill="#FFB600" p-id="1426"></path><path d="M501.76 466.944h61.44v61.44h-61.44z" fill="#FFC933" p-id="1427"></path><path d="M501.76 528.384h61.44v61.44h-61.44z" fill="#FFB600" p-id="1428"></path><path d="M501.76 589.824h61.44v61.44h-61.44z" fill="#FFC933" p-id="1429"></path><path d="M501.76 649.216h61.44v61.44h-61.44z" fill="#FFB600" p-id="1430"></path><path d="M501.76 710.656h61.44v61.44h-61.44z" fill="#FFC933" p-id="1431"></path><path d="M501.76 772.096h61.44v61.44h-61.44z" fill="#FFB600" p-id="1432"></path><path d="M501.76 831.488h61.44v61.44h-61.44z" fill="#FFC933" p-id="1433"></path><path d="M380.928 346.112h61.44v61.44h-61.44z" fill="#FFB600" p-id="1434"></path><path d="M442.368 346.112h61.44v61.44h-61.44z" fill="#FFC933" p-id="1435"></path><path d="M563.2 346.112h61.44v61.44h-61.44z" fill="#FFB600" p-id="1436"></path><path d="M501.76 346.112h61.44v61.44h-61.44z" fill="#FFC933" p-id="1437"></path><path d="M501.76 165.888h61.44v61.44h-61.44zM563.2 227.328h61.44v61.44h-61.44zM624.64 165.888h61.44v61.44h-61.44z" fill="#009944" p-id="1438"></path></svg>